<svg width="850" height="150" viewBox="0 0 850 150" fill="none" xmlns="http://www.w3.org/2000/svg" role="img" aria-labelledby="title desc">
  <title id="title">Issue to merge workflow overview</title>
  <desc id="desc">A GitHub workflow showing Issue, Jules task, pull request, CI, human review, and merge.</desc>
  <style>
    .text { font-family: -apple-system, BlinkMacSystemFont, "Segoe UI", Helvetica, Arial, sans-serif; font-size: 13px; }
    .small { font-size: 11px; }
    .node { stroke-width: 1.5; }
    .arrow { stroke-width: 1.5; fill: none; }
    @media (prefers-color-scheme: dark) {
      .text { fill: #adbac7; }
      .node { fill: #22272e; stroke: #444c56; }
      .arrow { stroke: #444c56; }
      .arrow-head { fill: #444c56; }
    }
    @media (prefers-color-scheme: light) {
      .text { fill: #24292f; }
      .node { fill: #ffffff; stroke: #d0d7de; }
      .arrow { stroke: #d0d7de; }
      .arrow-head { fill: #d0d7de; }
    }
  </style>
  <defs>
    <marker id="arrowhead" markerWidth="10" markerHeight="7" refX="10" refY="3.5" orient="auto">
      <polygon points="0 0, 10 3.5, 0 7" class="arrow-head" />
    </marker>
  </defs>
  <rect x="10" y="55" width="90" height="40" rx="5" class="node" />
  <text x="55" y="80" text-anchor="middle" class="text">Issue</text>
  <rect x="150" y="55" width="95" height="40" rx="5" class="node" />
  <text x="197" y="80" text-anchor="middle" class="text">Jules task</text>
  <rect x="295" y="55" width="105" height="40" rx="5" class="node" />
  <text x="347" y="80" text-anchor="middle" class="text">Pull request</text>
  <rect x="450" y="55" width="90" height="40" rx="5" class="node" />
  <text x="495" y="80" text-anchor="middle" class="text">CI</text>
  <rect x="590" y="55" width="120" height="40" rx="5" class="node" />
  <text x="650" y="80" text-anchor="middle" class="text">Human review</text>
  <rect x="760" y="55" width="80" height="40" rx="5" class="node" />
  <text x="800" y="80" text-anchor="middle" class="text">Merge</text>
  <line x1="100" y1="75" x2="150" y2="75" class="arrow" marker-end="url(#arrowhead)" />
  <line x1="245" y1="75" x2="295" y2="75" class="arrow" marker-end="url(#arrowhead)" />
  <line x1="400" y1="75" x2="450" y2="75" class="arrow" marker-end="url(#arrowhead)" />
  <line x1="540" y1="75" x2="590" y2="75" class="arrow" marker-end="url(#arrowhead)" />
  <line x1="710" y1="75" x2="760" y2="75" class="arrow" marker-end="url(#arrowhead)" />
  <path d="M650 55 V30 H197 V55" stroke-dasharray="4" class="arrow" marker-end="url(#arrowhead)" />
  <text x="420" y="24" text-anchor="middle" class="text small">request changes</text>
</svg>
